<?xml version="1.0" standalone="no"?>
<!DOCTYPE svg PUBLIC "-//W3C//DTD SVG 20010904//EN"
 "http://www.w3.org/TR/2001/REC-SVG-20010904/DTD/svg10.dtd">
<svg version="1.0" xmlns="http://www.w3.org/2000/svg"
 width="200.000000pt" height="200.000000pt" viewBox="0 0 200.000000 200.000000"
 preserveAspectRatio="xMidYMid meet">
<metadata>
Created by potrace 1.15, written by Peter Selinger 2001-2017
</metadata>
<g transform="translate(0.000000,200.000000) scale(0.100000,-0.100000)"
fill="#000000" stroke="none">
<path d="M470 1261 c-120 -37 -176 -128 -168 -270 6 -100 37 -158 106 -198 90
-53 232 -32 292 44 83 106 77 281 -15 369 -57 55 -142 77 -215 55z m130 -111
c60 -64 60 -212 0 -272 -40 -39 -105 -40 -142 0 -35 36 -48 72 -48 137 0 65
13 101 48 138 20 21 35 27 70 27 36 0 49 -5 72 -30z"/>
<path d="M980 1251 c-65 -23 -130 -88 -148 -148 -17 -56 -15 -157 4 -201 41
-100 150 -154 278 -138 71 9 79 16 71 59 l-7 35 -71 -5 c-64 -4 -76 -2 -107
19 -46 31 -70 81 -70 143 0 62 24 112 70 143 31 21 43 23 106 19 l72 -5 10 38
c12 47 7 49 -88 56 -48 3 -79 0 -120 -15z"/>
<path d="M1293 1253 l-33 -4 0 -240 0 -239 55 0 55 0 0 95 0 95 34 0 c46 0 69
-31 91 -120 l17 -70 54 0 c30 0 54 3 54 7 0 32 -48 170 -66 193 l-24 28 34 34
c44 44 53 80 35 131 -16 47 -50 75 -105 87 -39 9 -139 11 -201 3z m187 -93
c20 -20 26 -65 12 -86 -13 -19 -50 -34 -86 -34 l-36 0 0 70 0 70 45 0 c32 0
51 -6 65 -20z"/>
</g>
</svg>
